<svg xmlns="http://www.w3.org/2000/svg" version="1.1" xmlns:xlink="http://www.w3.org/1999/xlink" xmlns:svgjs="http://svgjs.dev/svgjs" width="750" height="515" viewBox="0 0 321.10484619140624 312" class="svg-animations " style="background: rgb(43, 89, 189);"><svg viewBox="0 0 259.9907531738281 265" width="75" height="75" style="fill: rgb(154, 188, 255);" x="123.05242309570312" y="89.00485420227051"><svg xmlns="http://www.w3.org/2000/svg" viewBox="0 0 281 281"><path class="cls-1" d="m200.71,40.14h-35.12V5.02c0-2.77-2.25-5.02-5.02-5.02s-5.02,2.25-5.02,5.02v35.12h-35.12V5.02c0-2.77-2.25-5.02-5.02-5.02s-5.02,2.25-5.02,5.02v35.12h-30.11V5.02c0-2.77-2.25-5.02-5.02-5.02s-5.02,2.25-5.02,5.02v35.12h-15.05c-3.99,0-7.82,1.59-10.64,4.41-2.82,2.82-4.41,6.65-4.41,10.64v10.04H5.02c-2.77,0-5.02,2.25-5.02,5.02s2.25,5.02,5.02,5.02h35.12v30.11H5.02c-2.77,0-5.02,2.25-5.02,5.02s2.25,5.02,5.02,5.02h35.12v35.12H5.02c-2.77,0-5.02,2.25-5.02,5.02s2.25,5.02,5.02,5.02h35.12v35.12H5.02c-2.77,0-5.02,2.25-5.02,5.02s2.25,5.02,5.02,5.02h35.12v20.07c0,3.99,1.59,7.82,4.41,10.64,2.82,2.82,6.65,4.41,10.64,4.41h15.05v35.12c0,2.77,2.25,5.02,5.02,5.02s5.02-2.25,5.02-5.02v-35.12h30.11v35.12c0,2.77,2.25,5.02,5.02,5.02s5.02-2.25,5.02-5.02v-35.12h35.12v35.12c0,2.77,2.25,5.02,5.02,5.02s5.02-2.25,5.02-5.02v-35.12h35.12v35.12c0,2.77,2.25,5.02,5.02,5.02s5.02-2.25,5.02-5.02v-35.12h15.05c3.99,0,7.82-1.59,10.64-4.41,2.82-2.82,4.41-6.65,4.41-10.64v-20.07h35.12c2.77,0,5.02-2.25,5.02-5.02s-2.25-5.02-5.02-5.02h-35.12v-35.12h35.12c2.77,0,5.02-2.25,5.02-5.02s-2.25-5.02-5.02-5.02h-35.12v-35.12h35.12c2.77,0,5.02-2.25,5.02-5.02s-2.25-5.02-5.02-5.02h-35.12v-30.11h35.12c2.77,0,5.02-2.25,5.02-5.02s-2.25-5.02-5.02-5.02h-35.12v-10.04c0-3.99-1.59-7.82-4.41-10.64-2.82-2.82-6.65-4.41-10.64-4.41h-15.05V5.02c0-2.77-2.25-5.02-5.02-5.02s-5.02,2.25-5.02,5.02v35.12Zm30.11,15.05v170.61c0,1.33-.53,2.61-1.47,3.55-.94.94-2.22,1.47-3.55,1.47H55.2c-1.33,0-2.61-.53-3.55-1.47-.94-.94-1.47-2.22-1.47-3.55V55.2c0-1.33.53-2.61,1.47-3.55.94-.94,2.22-1.47,3.55-1.47h170.61c1.33,0,2.61.53,3.55,1.47.94.94,1.47,2.22,1.47,3.55Zm-65.23,145.52h20.07c8.32,0,15.05-6.74,15.05-15.05v-90.32c0-3.99-1.59-7.82-4.41-10.64-2.82-2.82-6.65-4.41-10.64-4.41h-25.09c-2.77,0-5.02,2.25-5.02,5.02s2.25,5.02,5.02,5.02h25.09c1.33,0,2.61.53,3.55,1.47.94.94,1.47,2.22,1.47,3.55v90.32c0,2.77-2.25,5.02-5.02,5.02h-20.07c-2.77,0-5.02,2.25-5.02,5.02s2.25,5.02,5.02,5.02Zm-21.92-104.62c.93,1.08,1.92,2.28,2.95,3.56,8.18,10.28,18.98,26.69,18.98,43.35,0,10.61-4.49,20.38-9.76,28.34-6.44,9.71-14.14,16.75-17.14,19.33,0,0-43.36,0-43.36,0-1.33,0-2.61-.53-3.55-1.47-.94-.94-1.47-2.22-1.47-3.55v-90.32c0-1.33.53-2.61,1.47-3.55.94-.94,2.22-1.47,3.55-1.47h25.09c2.77,0,5.02-2.25,5.02-5.02s-2.25-5.02-5.02-5.02h-25.09c-3.99,0-7.82,1.59-10.64,4.41-2.82,2.82-4.41,6.65-4.41,10.64v90.32c0,3.99,1.59,7.82,4.41,10.64,2.82,2.83,6.65,4.41,10.64,4.41h45.16c1.12,0,2.21-.38,3.1-1.07,0,0,11.45-8.96,20.59-22.76,6.29-9.49,11.44-21.23,11.44-33.88,0-18.99-11.84-37.89-21.17-49.61-1.1-1.38-2.16-2.67-3.16-3.83-4.25-4.97-7.34-7.9-7.34-7.9-1.94-1.84-4.98-1.84-6.91,0,0,0-11.32,10.74-20.36,25.9-6.23,10.43-11.31,22.92-11.31,35.45,0,15.73,7.99,30.04,16.13,40.36,1.47,1.86,4.04,2.44,6.17,1.38,0,0,12.49-6.05,18.69-22.06,3.91-10.12,5.4-24.39-1.11-43.86-.88-2.63-3.72-4.04-6.35-3.17-2.63.88-4.04,3.72-3.17,6.35,5.51,16.45,4.58,28.5,1.27,37.05-2.82,7.3-7.32,11.89-10.41,14.37-5.9-8.31-11.19-18.88-11.19-30.43,0-10.73,4.56-21.36,9.89-30.3,5.3-8.89,11.45-16.13,15.2-20.19.92,1.01,2,2.21,3.17,3.58h0Z"></path></svg></svg><text fill="#0ac4ff" font-family="Expletus Sans" font-size="38px" x="26.758737182617182" y="203.38349338642593"><tspan dy="0" x="26.758737182617182">Cable Mapping</tspan></text><text fill="#9ce7ff" font-family="Hind" font-size="19px" x="160.55242309570312" y="222.9951457977295"><tspan dy="0" x="160.55242309570312"></tspan></text></svg>